<?xml version="1.0" standalone="no"?>
<!DOCTYPE svg PUBLIC "-//W3C//DTD SVG 20010904//EN"
 "http://www.w3.org/TR/2001/REC-SVG-20010904/DTD/svg10.dtd">
<svg version="1.0" xmlns="http://www.w3.org/2000/svg"
 width="512.000000pt" height="512.000000pt" viewBox="0 0 512.000000 512.000000"
 preserveAspectRatio="xMidYMid meet">

<g transform="translate(0.000000,512.000000) scale(0.100000,-0.100000)"
fill="white" stroke="white" stroke-width="10%">
<path d="M2594 4416 c-10 -8 -50 -79 -89 -158 l-70 -143 -160 -23 c-143 -20
-162 -26 -182 -48 -13 -14 -23 -35 -23 -46 0 -14 43 -65 121 -143 l121 -123
-28 -160 c-26 -152 -26 -162 -11 -186 32 -48 54 -44 214 40 l147 77 149 -77
c159 -84 182 -88 213 -41 15 23 14 36 -12 188 l-27 163 121 119 c131 128 139
145 100 189 -21 22 -40 27 -183 48 l-160 23 -75 148 c-41 81 -82 152 -90 157
-22 14 -53 12 -76 -4z m155 -422 c8 -7 58 -18 111 -24 52 -7 99 -15 103 -17 5
-3 -28 -42 -72 -88 -45 -45 -81 -88 -81 -95 0 -7 7 -55 16 -107 9 -52 14 -96
11 -99 -3 -3 -46 15 -96 40 -50 25 -98 46 -108 46 -9 0 -61 -23 -116 -51 -78
-40 -98 -47 -93 -32 6 20 36 192 36 207 0 5 -37 46 -82 92 -53 55 -76 85 -67
88 8 3 53 10 101 16 54 8 97 19 110 30 13 10 43 59 68 109 l44 92 49 -98 c27
-54 57 -103 66 -109z"/>
<path d="M1319 4197 c-16 -8 -46 -56 -91 -143 l-67 -131 -137 -19 c-154 -20
-184 -34 -184 -87 0 -28 14 -46 106 -134 l107 -102 -23 -138 c-13 -76 -21
-150 -17 -164 4 -17 18 -31 38 -40 31 -12 37 -10 164 56 l132 69 132 -68 c143
-73 167 -77 197 -31 15 23 14 34 -9 167 l-26 143 103 105 c57 58 106 113 109
123 9 24 -11 63 -37 75 -12 5 -82 18 -155 28 l-132 18 -64 132 c-54 111 -68
133 -93 142 -21 7 -36 7 -53 -1z m71 -307 c22 -43 48 -83 57 -88 10 -5 41 -12
68 -16 28 -4 65 -10 83 -13 l33 -5 -66 -68 c-72 -75 -73 -79 -54 -187 6 -35 9
-66 6 -69 -3 -3 -37 11 -76 30 -39 20 -82 36 -95 36 -13 0 -59 -19 -101 -41
l-77 -42 6 29 c34 172 34 170 -58 255 l-60 56 84 13 c47 7 95 19 108 27 12 7
39 47 59 88 21 41 39 75 40 75 2 0 21 -36 43 -80z"/>
<path d="M3893 4200 c-16 -6 -43 -51 -89 -143 l-67 -133 -144 -21 c-85 -12
-150 -26 -158 -34 -8 -8 -17 -27 -21 -42 -6 -25 4 -38 103 -140 l110 -112 -25
-142 c-24 -134 -24 -143 -8 -167 30 -47 54 -44 196 30 l132 69 134 -70 c128
-67 134 -69 160 -55 49 27 50 37 25 196 l-24 147 107 101 c114 108 125 130 88
176 -16 20 -39 26 -163 44 l-144 21 -65 127 c-36 70 -70 131 -75 136 -17 16
-49 21 -72 12z m72 -310 c44 -90 51 -94 164 -110 41 -6 76 -12 78 -14 2 -1
-26 -28 -62 -60 -36 -31 -68 -68 -71 -80 -5 -20 6 -106 23 -175 6 -24 4 -23
-71 17 -43 23 -89 42 -102 42 -13 0 -60 -18 -103 -39 l-78 -40 13 72 c22 120
21 121 -51 197 l-66 68 33 5 c18 4 57 9 87 13 66 9 88 29 127 120 16 35 31 64
34 64 3 0 23 -36 45 -80z"/>
<path d="M2795 3176 c-51 -31 -65 -57 -104 -189 -64 -217 -136 -355 -277 -530
l-86 -109 -27 54 c-34 68 -99 114 -174 123 -28 4 -187 5 -352 3 l-300 -3 -48
-28 c-26 -15 -60 -47 -75 -69 l-27 -42 0 -777 0 -777 30 -44 c20 -28 49 -52
84 -70 l55 -28 319 0 c223 0 332 4 360 12 57 17 122 82 138 138 7 25 13 46 14
47 0 1 49 -13 108 -32 l106 -35 498 0 c550 0 533 -1 612 66 79 66 105 205 57
296 l-24 46 28 20 c15 12 39 44 54 73 37 75 36 156 -2 232 -28 55 -28 57 -10
73 10 10 30 41 44 71 22 45 26 63 22 122 -3 56 -9 78 -36 121 l-33 53 20 21
c54 57 68 184 30 263 -26 54 -96 116 -147 131 -26 8 -130 12 -306 12 -184 0
-266 3 -266 11 0 6 9 45 19 87 47 187 53 377 14 478 -66 171 -203 249 -318
180z m152 -169 c48 -71 56 -115 49 -242 -6 -115 -28 -222 -70 -342 -29 -82
-24 -117 19 -133 15 -6 161 -10 347 -10 l320 0 34 -34 c70 -70 32 -176 -68
-189 -47 -6 -78 -35 -78 -71 0 -36 22 -56 80 -71 70 -18 100 -50 100 -108 0
-70 -50 -117 -125 -117 -40 0 -85 -36 -85 -68 0 -32 38 -72 68 -72 37 0 90
-35 102 -66 35 -91 -26 -164 -139 -164 -38 0 -56 -5 -71 -20 -43 -43 -14 -106
53 -117 62 -9 107 -58 107 -113 0 -34 -6 -48 -34 -76 l-34 -34 -484 0 -483 1
-110 38 -110 38 -2 549 -3 549 121 145 c67 80 143 178 170 218 74 108 144 260
195 420 45 139 47 143 72 140 19 -2 36 -17 59 -51z m-812 -627 c56 -21 56 -15
53 -791 l-3 -711 -28 -24 -28 -24 -308 0 c-297 0 -309 1 -335 21 l-26 20 0
730 c0 498 3 737 11 750 6 11 20 24 32 29 31 12 599 12 632 0z"/>
</g>
</svg>
