<?xml version="1.0" standalone="no"?>
<!DOCTYPE svg PUBLIC "-//W3C//DTD SVG 20010904//EN"
 "http://www.w3.org/TR/2001/REC-SVG-20010904/DTD/svg10.dtd">
<svg version="1.0" xmlns="http://www.w3.org/2000/svg"
 width="512.000000pt" height="512.000000pt" viewBox="0 0 512.000000 512.000000"
 preserveAspectRatio="xMidYMid meet">

<g transform="translate(0.000000,512.000000) scale(0.100000,-0.100000)"
fill="white" stroke="white" stroke-width="20%">
<path d="M4088 4545 c-206 -39 -404 -160 -528 -322 -87 -116 -139 -236 -175
-405 l-5 -28 -1666 -2 -1666 -3 -24 -28 -24 -28 0 -1544 c0 -959 4 -1553 10
-1569 22 -60 -128 -56 2165 -56 2280 0 2136 -4 2163 55 9 20 12 292 12 1115
l0 1090 28 5 c177 37 300 92 415 184 495 399 411 1172 -160 1460 -155 78 -374
108 -545 76z m374 -222 c387 -134 564 -562 386 -933 -57 -120 -177 -239 -298
-298 -124 -61 -191 -75 -330 -70 -186 7 -315 63 -445 193 -130 130 -186 259
-193 445 -5 138 9 206 69 328 47 97 143 205 233 263 168 110 388 137 578 72z
m-1078 -755 c21 -104 32 -141 54 -198 14 -36 43 -94 64 -130 25 -41 37 -69 31
-77 -16 -23 -1056 -988 -1106 -1026 -109 -82 -276 -99 -408 -41 -57 25 -95 58
-349 310 -181 179 -295 284 -312 288 -59 14 -118 -34 -118 -98 0 -39 7 -47
200 -241 110 -110 200 -204 200 -208 0 -4 -324 -290 -720 -637 l-720 -630 0
1291 c0 1229 1 1291 18 1278 9 -8 73 -64 142 -124 209 -184 196 -175 241 -175
46 0 84 30 95 76 14 56 12 58 -261 301 l-70 62 1507 1 1508 0 4 -22z m351
-584 c105 -76 231 -127 393 -160 l22 -4 0 -966 c0 -597 -4 -964 -9 -962 -24 8
-1412 1231 -1408 1241 3 11 938 886 947 887 3 0 28 -16 55 -36z m-1899 -1015
c134 -92 307 -128 470 -98 62 11 183 63 235 99 27 20 32 20 47 8 9 -8 327
-286 705 -616 l688 -602 -1807 0 -1807 0 44 38 c611 536 1374 1202 1377 1202
2 0 23 -14 48 -31z"/>
<path d="M4180 3968 c-74 -46 -80 -53 -80 -89 0 -39 24 -55 61 -42 l29 11 0
-233 c0 -230 0 -234 22 -249 12 -9 34 -16 48 -16 14 0 36 7 48 16 22 15 22 17
22 314 0 258 -2 301 -16 314 -25 25 -64 18 -134 -26z"/>
<path d="M889 3002 c-54 -48 -39 -130 28 -158 27 -12 42 -13 69 -4 70 23 88
108 35 161 -40 39 -89 40 -132 1z"/>
</g>
</svg>
