<?xml version="1.0" standalone="no"?>
<!DOCTYPE svg PUBLIC "-//W3C//DTD SVG 20010904//EN"
 "http://www.w3.org/TR/2001/REC-SVG-20010904/DTD/svg10.dtd">
<svg version="1.0" xmlns="http://www.w3.org/2000/svg"
 width="512.000000pt" height="512.000000pt" viewBox="0 0 512.000000 512.000000"
 preserveAspectRatio="xMidYMid meet">

<g transform="translate(0.000000,512.000000) scale(0.100000,-0.100000)"
fill="white" stroke="white" stroke-width="15%">
<path d="M1539 5106 c-102 -27 -190 -103 -238 -205 -25 -54 -26 -64 -29 -258
l-3 -201 -242 -4 c-240 -3 -242 -3 -297 -30 -88 -43 -135 -90 -177 -176 l-38
-76 0 -1935 0 -1936 27 -58 c37 -78 78 -129 136 -165 103 -66 16 -63 1528 -60
l1369 3 57 27 c76 35 148 104 184 175 29 58 29 59 32 265 l3 206 242 4 242 3
59 29 c79 39 140 102 179 184 l32 67 0 1598 0 1597 -480 480 -480 480 -1030
-1 c-783 0 -1041 -3 -1076 -13z m1993 -523 l3 -378 28 -48 c35 -58 86 -93 156
-107 30 -5 205 -10 392 -10 l339 0 0 -1507 c0 -1022 -3 -1520 -11 -1546 -13
-49 -63 -105 -114 -128 -38 -18 -106 -19 -1386 -19 l-1345 0 -51 25 c-32 16
-61 41 -79 67 l-29 41 -3 1912 c-2 2088 -6 1948 55 2009 15 16 46 37 68 47 38
18 90 19 1007 19 l967 0 3 -377z m485 -55 c172 -172 313 -316 313 -321 0 -4
-135 -7 -301 -5 l-301 3 -19 24 c-18 22 -19 43 -19 317 0 162 3 294 7 294 5 0
149 -141 320 -312z m-2745 -1910 l3 -1663 27 -57 c37 -79 98 -142 177 -181
l66 -32 1073 -3 1073 -2 -3 -193 c-3 -191 -3 -194 -30 -234 -17 -26 -45 -50
-79 -67 l-53 -26 -1335 0 c-918 0 -1348 3 -1375 11 -55 15 -120 84 -134 141
-16 64 -17 3749 -1 3812 14 56 62 114 113 137 36 16 69 19 258 19 l218 0 2
-1662z"/>
<path d="M1825 3848 c-51 -27 -60 -84 -20 -123 l24 -25 1109 0 c1042 0 1111 1
1131 18 11 9 24 31 27 49 5 27 1 37 -24 63 l-30 30 -1099 0 c-775 -1 -1104 -4
-1118 -12z"/>
<path d="M1805 3215 c-16 -15 -25 -36 -25 -55 0 -19 9 -40 25 -55 l24 -25
1106 0 c689 0 1113 4 1124 10 10 5 24 23 31 40 16 38 0 82 -36 99 -18 8 -329
11 -1125 11 l-1100 0 -24 -25z"/>
<path d="M1805 2595 c-16 -15 -25 -36 -25 -55 0 -19 9 -40 25 -55 l24 -25
1100 0 c796 0 1107 3 1125 11 36 17 52 61 36 99 -7 17 -21 35 -31 40 -11 6
-435 10 -1124 10 l-1106 0 -24 -25z"/>
<path d="M1805 1975 c-16 -15 -25 -36 -25 -55 0 -19 9 -40 25 -55 l24 -25
1109 0 c1099 0 1108 0 1130 20 40 38 37 93 -7 127 -12 10 -269 12 -1124 13
l-1108 0 -24 -25z"/>
<path d="M1802 1357 c-30 -32 -29 -77 4 -108 l26 -24 1110 0 1110 0 24 28 c29
34 31 66 3 101 l-20 26 -1118 0 -1118 0 -21 -23z"/>
</g>
</svg>
