<?xml version="1.0" standalone="no"?>
<!DOCTYPE svg PUBLIC "-//W3C//DTD SVG 20010904//EN"
 "http://www.w3.org/TR/2001/REC-SVG-20010904/DTD/svg10.dtd">
<svg version="1.0" xmlns="http://www.w3.org/2000/svg"
 width="512.000000pt" height="512.000000pt" viewBox="0 0 512.000000 512.000000"
 preserveAspectRatio="xMidYMid meet">

<g transform="translate(0.000000,512.000000) scale(0.100000,-0.100000)"
fill="white" stroke="white" stroke-width="10%">
<path d="M1210 4465 c-336 -68 -585 -327 -640 -665 -7 -47 -11 -147 -8 -265 3
-189 3 -190 35 -257 42 -90 100 -150 186 -193 38 -19 75 -35 82 -35 8 0 14
-25 19 -72 12 -129 71 -262 164 -368 l44 -50 -74 0 -73 0 -23 40 c-13 22 -40
53 -62 69 -61 44 -112 54 -263 49 -131 -3 -136 -4 -209 -41 -90 -44 -148 -103
-189 -192 -63 -135 -46 -262 48 -344 41 -36 43 -41 32 -67 -37 -97 -39 -156
-39 -1020 l0 -845 25 -24 c29 -30 74 -32 106 -6 l24 19 5 874 5 873 23 68 23
67 71 0 c102 0 144 16 206 77 28 28 52 58 52 66 0 8 25 29 56 47 39 22 64 45
86 80 l31 50 88 0 c69 0 89 -3 89 -14 0 -7 16 -45 35 -83 43 -86 103 -144 193
-186 61 -29 76 -32 163 -32 90 0 99 2 171 37 136 68 215 186 225 337 l6 79 63
66 c99 106 173 279 174 409 0 24 5 37 14 37 32 0 156 73 196 116 85 92 128
239 100 339 -8 28 -30 65 -54 92 l-42 46 38 76 c59 118 68 179 68 464 l0 248
-25 24 c-29 30 -74 32 -106 6 -24 -19 -24 -20 -29 -293 -6 -302 -11 -328 -83
-435 l-32 -48 -115 1 c-118 0 -176 12 -265 57 -69 34 -143 97 -197 168 -88
115 -128 115 -216 0 -114 -150 -251 -219 -447 -227 -60 -2 -140 -6 -177 -8
l-68 -3 0 36 c1 70 30 177 72 261 74 146 216 268 378 322 62 21 87 22 508 28
l444 5 19 24 c26 32 24 77 -6 106 l-24 25 -418 -1 c-302 -1 -436 -5 -483 -14z
m360 -731 c93 -96 260 -184 379 -200 l51 -7 0 -271 c0 -212 -3 -285 -15 -331
-67 -256 -329 -415 -578 -350 -173 45 -307 178 -352 350 -12 46 -15 119 -15
331 l0 271 51 7 c119 16 286 104 379 200 24 25 47 46 50 46 3 0 26 -21 50 -46z
m-690 -364 c0 -176 -2 -179 -83 -97 -78 78 -101 174 -52 222 20 21 34 25 80
25 l55 0 0 -150z m1415 125 c49 -48 26 -144 -52 -222 -81 -82 -83 -79 -83 97
l0 150 55 0 c46 0 60 -4 80 -25z m-1524 -964 c17 -18 29 -40 29 -56 0 -36 -41
-75 -80 -75 -41 0 -80 -39 -80 -80 0 -19 -9 -40 -25 -55 -23 -24 -31 -25 -135
-25 -104 0 -112 1 -135 25 -28 27 -32 65 -13 129 15 51 99 137 148 153 19 6
86 11 148 12 113 1 114 1 143 -28z m627 -117 c41 -8 95 -14 122 -14 47 0 178
22 213 35 45 18 -2 -86 -63 -137 -89 -77 -211 -77 -300 0 -61 51 -108 155 -62
137 9 -4 50 -13 90 -21z"/>
<path d="M1225 3415 c-50 -49 -15 -135 55 -135 41 0 80 39 80 80 0 41 -39 80
-80 80 -19 0 -40 -9 -55 -25z"/>
<path d="M1705 3415 c-50 -49 -15 -135 55 -135 41 0 80 39 80 80 0 41 -39 80
-80 80 -19 0 -40 -9 -55 -25z"/>
<path d="M1305 3015 c-54 -53 -23 -115 81 -166 109 -54 229 -41 330 36 54 42
53 118 -2 144 -38 17 -57 14 -102 -20 -34 -25 -53 -31 -92 -31 -39 0 -58 6
-92 31 -51 38 -90 40 -123 6z"/>
<path d="M3517 4464 c-377 -68 -671 -389 -712 -779 -6 -54 -14 -78 -35 -105
-40 -51 -54 -102 -47 -178 8 -81 50 -174 107 -236 40 -43 164 -116 196 -116 9
0 14 -12 14 -36 0 -88 52 -245 111 -333 l23 -34 -25 6 c-79 19 -216 29 -329
23 -126 -6 -187 -17 -403 -75 -72 -19 -157 -34 -218 -38 -77 -5 -106 -11 -125
-25 -34 -27 -33 -80 2 -115 26 -25 28 -26 126 -19 113 7 207 25 329 61 46 14
125 32 174 40 90 15 276 20 288 9 3 -4 -20 -23 -51 -44 -68 -43 -119 -100
-172 -190 -38 -64 -91 -122 -141 -152 -43 -27 -129 -48 -196 -48 -55 0 -68 -4
-88 -25 l-25 -24 0 -911 0 -911 25 -24 c29 -30 74 -32 106 -6 l24 19 5 607 5
606 57 -40 c64 -47 121 -118 152 -194 20 -50 21 -71 26 -515 l5 -464 24 -19
c32 -26 77 -24 106 6 l25 24 0 438 c0 483 -4 523 -60 637 -58 118 -155 214
-272 269 l-68 32 0 166 0 167 62 11 c142 25 280 121 353 247 71 123 134 178
235 208 68 20 160 22 160 2 0 -7 16 -45 35 -83 43 -86 103 -144 193 -186 61
-29 76 -32 162 -32 86 0 101 3 162 32 90 42 150 100 193 186 19 38 35 76 35
83 0 10 14 14 49 14 47 0 49 -1 79 -50 22 -35 47 -58 86 -80 31 -18 56 -39 56
-47 0 -8 24 -38 53 -66 63 -64 102 -77 225 -77 73 0 91 -3 96 -16 3 -9 6 -141
6 -295 l0 -280 25 -24 c15 -16 36 -25 55 -25 19 0 40 9 55 25 l25 24 -1 288
c-1 158 -4 302 -8 318 -6 25 -1 37 30 72 69 81 76 198 20 319 -41 88 -99 147
-189 191 -73 37 -78 38 -209 41 -151 5 -202 -5 -263 -49 -22 -16 -49 -47 -62
-69 -20 -34 -28 -40 -56 -40 l-34 0 44 50 c93 106 152 239 164 368 5 47 11 72
19 72 32 0 156 74 195 116 94 102 134 261 91 360 -12 27 -30 58 -40 69 -12 13
-22 51 -29 111 -19 144 -90 329 -149 389 -33 33 -76 33 -108 0 -35 -34 -31
-60 19 -158 40 -80 76 -190 76 -237 0 -20 -5 -20 -220 -20 -163 0 -241 4 -298
16 -133 28 -245 84 -351 178 -35 31 -61 46 -80 46 -20 0 -72 -33 -187 -120
l-159 -119 -64 -1 -64 0 7 51 c18 131 87 260 201 374 94 93 161 135 282 178
82 29 97 31 223 31 121 0 143 -3 215 -28 44 -15 108 -43 142 -62 34 -19 73
-34 88 -34 35 0 75 41 75 78 0 39 -35 72 -123 115 -182 90 -366 116 -560 81z
m-37 -764 c63 -50 200 -117 295 -145 72 -21 119 -28 238 -32 l147 -6 0 -266
c0 -207 -3 -280 -15 -326 -67 -256 -329 -415 -578 -350 -173 45 -307 178 -352
350 -12 47 -15 121 -15 347 l0 288 113 85 c61 46 116 85 121 85 4 0 25 -14 46
-30z m-440 -330 c0 -176 -2 -179 -83 -97 -78 78 -101 174 -52 222 20 21 34 25
80 25 l55 0 0 -150z m1415 125 c49 -48 26 -144 -52 -222 -81 -82 -83 -79 -83
97 l0 150 55 0 c46 0 60 -4 80 -25z m179 -947 c55 -16 138 -99 154 -154 19
-64 15 -102 -13 -129 -23 -24 -31 -25 -135 -25 -104 0 -112 1 -135 25 -14 13
-25 36 -25 50 0 35 -50 85 -85 85 -33 0 -75 42 -75 75 0 16 12 38 29 56 29 28
32 29 137 29 58 0 125 -5 148 -12z m-1076 -134 c41 -8 95 -14 122 -14 47 0
178 22 213 35 45 18 -2 -86 -63 -137 -89 -77 -211 -77 -300 0 -61 51 -108 155
-62 137 9 -4 50 -13 90 -21z"/>
<path d="M3385 3415 c-16 -15 -25 -36 -25 -55 0 -19 9 -40 25 -55 15 -16 36
-25 55 -25 19 0 40 9 55 25 16 15 25 36 25 55 0 19 -9 40 -25 55 -15 16 -36
25 -55 25 -19 0 -40 -9 -55 -25z"/>
<path d="M3865 3415 c-16 -15 -25 -36 -25 -55 0 -19 9 -40 25 -55 15 -16 36
-25 55 -25 19 0 40 9 55 25 16 15 25 36 25 55 0 19 -9 40 -25 55 -15 16 -36
25 -55 25 -19 0 -40 -9 -55 -25z"/>
<path d="M3465 3015 c-54 -53 -23 -115 81 -166 109 -54 229 -41 330 36 54 42
53 118 -2 144 -38 17 -57 14 -102 -20 -34 -25 -53 -31 -92 -31 -39 0 -58 6
-92 31 -51 38 -90 40 -123 6z"/>
<path d="M745 1655 l-25 -24 0 -711 0 -711 25 -24 c32 -33 78 -33 110 0 l25
24 0 711 0 711 -25 24 c-15 16 -36 25 -55 25 -19 0 -40 -9 -55 -25z"/>
<path d="M4265 1575 l-25 -24 0 -671 0 -671 25 -24 c32 -33 78 -33 110 0 l25
24 0 671 0 671 -25 24 c-15 16 -36 25 -55 25 -19 0 -40 -9 -55 -25z"/>
<path d="M4745 1255 l-25 -24 0 -511 0 -511 25 -24 c15 -16 36 -25 55 -25 19
0 40 9 55 25 l25 24 0 511 0 511 -25 24 c-15 16 -36 25 -55 25 -19 0 -40 -9
-55 -25z"/>
</g>
</svg>
